# xmcd
#
# Track frame offsets:
#	150
#	17952
#	40937
#	73814
#	89954
#	107563
#	127443
#	144263
#	164191
#	184063
#	207117
#	222346
#	247337
#	291264
#
# Disc length: 4319 seconds
#
# Revision: 0
# Processed by: cddbd v1.5.1PL0 Copyright (c) Steve Scherf et al.
# Submitted via: dBpowerAMP V4.0
#
DISCID=ee10dd0e
DTITLE=Michael Murphey - Cosmic Cowboy Souvenir
DYEAR=1973
DGENRE=Country
TTITLE0=Cosmic Cowboy, Part 1
TTITLE1=Alleys Of Austin
TTITLE2=South Canadian River Song
TTITLE3=Blessing In Disguise
TTITLE4=Temperature Train
TTITLE5=Drunken Lady Of The Morning
TTITLE6=Prometheus Busted
TTITLE7=Honolulu
TTITLE8=Rolling Hills
TTITLE9=Michael Angelo's Blues (Live) (1970) (bonus track)
TTITLE10=What Am I Doin' Hangin' Around? (Live) (1970) (bonus track)
TTITLE11=Seasons Change (Live) (1970) (bonus track)
TTITLE12=Natchez Trace (Live) (1970) (bonus track)
TTITLE13=Wildfire (Live) (1970) (bonus track)
EXTD=
EXTT0=
EXTT1=
EXTT2=
EXTT3=
EXTT4=
EXTT5=
EXTT6=
EXTT7=
EXTT8=
EXTT9=
EXTT10=
EXTT11=
EXTT12=
EXTT13=
PLAYORDER=
